<mxfile host="Electron" agent="Mozilla/5.0 (Windows NT 10.0; Win64; x64) AppleWebKit/537.36 (KHTML, like Gecko) draw.io/26.0.4 Chrome/128.0.6613.186 Electron/32.2.5 Safari/537.36" version="26.0.4">
  <diagram name="Page-1" id="YpylJ_wywFsblzZ77bc3">
    <mxGraphModel dx="1257" dy="191" grid="1" gridSize="10" guides="1" tooltips="1" connect="1" arrows="1" fold="1" page="1" pageScale="1" pageWidth="850" pageHeight="1100" math="0" shadow="0">
      <root>
        <mxCell id="0" />
        <mxCell id="1" parent="0" />
        <mxCell id="x3BpiLL0yiVPKCxL9a65-1" value="User" style="swimlane;fontStyle=0;childLayout=stackLayout;horizontal=1;startSize=26;fillColor=#d5e8d4;horizontalStack=0;resizeParent=1;resizeParentMax=0;resizeLast=0;collapsible=1;marginBottom=0;whiteSpace=wrap;html=1;strokeColor=#82b366;" parent="1" vertex="1">
          <mxGeometry x="4" y="204" width="156" height="276" as="geometry">
            <mxRectangle x="350" y="210" width="80" height="30" as="alternateBounds" />
          </mxGeometry>
        </mxCell>
        <mxCell id="x3BpiLL0yiVPKCxL9a65-2" value="+ _id: string" style="text;strokeColor=none;fillColor=none;align=left;verticalAlign=top;spacingLeft=4;spacingRight=4;overflow=hidden;rotatable=0;points=[[0,0.5],[1,0.5]];portConstraint=eastwest;whiteSpace=wrap;html=1;" parent="x3BpiLL0yiVPKCxL9a65-1" vertex="1">
          <mxGeometry y="26" width="156" height="26" as="geometry" />
        </mxCell>
        <mxCell id="x3BpiLL0yiVPKCxL9a65-3" value="+ email: string" style="text;strokeColor=none;fillColor=none;align=left;verticalAlign=top;spacingLeft=4;spacingRight=4;overflow=hidden;rotatable=0;points=[[0,0.5],[1,0.5]];portConstraint=eastwest;whiteSpace=wrap;html=1;" parent="x3BpiLL0yiVPKCxL9a65-1" vertex="1">
          <mxGeometry y="52" width="156" height="26" as="geometry" />
        </mxCell>
        <mxCell id="x3BpiLL0yiVPKCxL9a65-4" value="+ idCard: string" style="text;strokeColor=none;fillColor=none;align=left;verticalAlign=top;spacingLeft=4;spacingRight=4;overflow=hidden;rotatable=0;points=[[0,0.5],[1,0.5]];portConstraint=eastwest;whiteSpace=wrap;html=1;" parent="x3BpiLL0yiVPKCxL9a65-1" vertex="1">
          <mxGeometry y="78" width="156" height="26" as="geometry" />
        </mxCell>
        <mxCell id="x3BpiLL0yiVPKCxL9a65-5" value="+ name: string" style="text;strokeColor=none;fillColor=none;align=left;verticalAlign=top;spacingLeft=4;spacingRight=4;overflow=hidden;rotatable=0;points=[[0,0.5],[1,0.5]];portConstraint=eastwest;whiteSpace=wrap;html=1;" parent="x3BpiLL0yiVPKCxL9a65-1" vertex="1">
          <mxGeometry y="104" width="156" height="26" as="geometry" />
        </mxCell>
        <mxCell id="x3BpiLL0yiVPKCxL9a65-6" value="+ surname: string" style="text;strokeColor=none;fillColor=none;align=left;verticalAlign=top;spacingLeft=4;spacingRight=4;overflow=hidden;rotatable=0;points=[[0,0.5],[1,0.5]];portConstraint=eastwest;whiteSpace=wrap;html=1;" parent="x3BpiLL0yiVPKCxL9a65-1" vertex="1">
          <mxGeometry y="130" width="156" height="26" as="geometry" />
        </mxCell>
        <mxCell id="x3BpiLL0yiVPKCxL9a65-8" value="+ state: UserStateEnum" style="text;strokeColor=none;fillColor=none;align=left;verticalAlign=top;spacingLeft=4;spacingRight=4;overflow=hidden;rotatable=0;points=[[0,0.5],[1,0.5]];portConstraint=eastwest;whiteSpace=wrap;html=1;" parent="x3BpiLL0yiVPKCxL9a65-1" vertex="1">
          <mxGeometry y="156" width="156" height="24" as="geometry" />
        </mxCell>
        <mxCell id="x3BpiLL0yiVPKCxL9a65-7" value="+ role: RoleEnum" style="text;strokeColor=none;fillColor=none;align=left;verticalAlign=top;spacingLeft=4;spacingRight=4;overflow=hidden;rotatable=0;points=[[0,0.5],[1,0.5]];portConstraint=eastwest;whiteSpace=wrap;html=1;" parent="x3BpiLL0yiVPKCxL9a65-1" vertex="1">
          <mxGeometry y="180" width="156" height="24" as="geometry" />
        </mxCell>
        <mxCell id="Urp_EZH4FQjt7h9jLKdx-18" value="+ projects: Project[]" style="text;strokeColor=#666666;fillColor=#f5f5f5;align=left;verticalAlign=top;spacingLeft=4;spacingRight=4;overflow=hidden;rotatable=0;points=[[0,0.5],[1,0.5]];portConstraint=eastwest;whiteSpace=wrap;html=1;fontColor=#333333;" parent="x3BpiLL0yiVPKCxL9a65-1" vertex="1">
          <mxGeometry y="204" width="156" height="24" as="geometry" />
        </mxCell>
        <mxCell id="KXXSFgCmxIffbm1IBeEC-42" value="+ enrollments: Enrollment[]" style="text;strokeColor=#666666;fillColor=#f5f5f5;align=left;verticalAlign=top;spacingLeft=4;spacingRight=4;overflow=hidden;rotatable=0;points=[[0,0.5],[1,0.5]];portConstraint=eastwest;whiteSpace=wrap;html=1;fontColor=#333333;" parent="x3BpiLL0yiVPKCxL9a65-1" vertex="1">
          <mxGeometry y="228" width="156" height="24" as="geometry" />
        </mxCell>
        <mxCell id="KXXSFgCmxIffbm1IBeEC-95" value="+ advances: Advance[]" style="text;strokeColor=#666666;fillColor=#f5f5f5;align=left;verticalAlign=top;spacingLeft=4;spacingRight=4;overflow=hidden;rotatable=0;points=[[0,0.5],[1,0.5]];portConstraint=eastwest;whiteSpace=wrap;html=1;fontColor=#333333;" parent="x3BpiLL0yiVPKCxL9a65-1" vertex="1">
          <mxGeometry y="252" width="156" height="24" as="geometry" />
        </mxCell>
        <mxCell id="x3BpiLL0yiVPKCxL9a65-11" value="&lt;i style=&quot;text-wrap: nowrap;&quot;&gt;&amp;lt;&amp;lt;Enumeration&amp;gt;&amp;gt;&lt;/i&gt;&lt;br style=&quot;text-wrap: nowrap;&quot;&gt;&lt;b style=&quot;text-wrap: nowrap;&quot;&gt;Role&lt;/b&gt;&lt;b style=&quot;text-wrap: nowrap;&quot;&gt;Enum&lt;/b&gt;" style="swimlane;fontStyle=0;childLayout=stackLayout;horizontal=1;startSize=40;fillColor=#fff2cc;horizontalStack=0;resizeParent=1;resizeParentMax=0;resizeLast=0;collapsible=1;marginBottom=0;whiteSpace=wrap;html=1;strokeColor=#d6b656;" parent="1" vertex="1">
          <mxGeometry y="484" width="160" height="118" as="geometry">
            <mxRectangle x="190" y="50" width="140" height="40" as="alternateBounds" />
          </mxGeometry>
        </mxCell>
        <mxCell id="x3BpiLL0yiVPKCxL9a65-12" value="+ estudiante: string" style="text;strokeColor=none;fillColor=none;align=left;verticalAlign=top;spacingLeft=4;spacingRight=4;overflow=hidden;rotatable=0;points=[[0,0.5],[1,0.5]];portConstraint=eastwest;whiteSpace=wrap;html=1;" parent="x3BpiLL0yiVPKCxL9a65-11" vertex="1">
          <mxGeometry y="40" width="160" height="26" as="geometry" />
        </mxCell>
        <mxCell id="x3BpiLL0yiVPKCxL9a65-13" value="+ lider: string" style="text;strokeColor=none;fillColor=none;align=left;verticalAlign=top;spacingLeft=4;spacingRight=4;overflow=hidden;rotatable=0;points=[[0,0.5],[1,0.5]];portConstraint=eastwest;whiteSpace=wrap;html=1;" parent="x3BpiLL0yiVPKCxL9a65-11" vertex="1">
          <mxGeometry y="66" width="160" height="26" as="geometry" />
        </mxCell>
        <mxCell id="x3BpiLL0yiVPKCxL9a65-14" value="+ administrador: string" style="text;strokeColor=none;fillColor=none;align=left;verticalAlign=top;spacingLeft=4;spacingRight=4;overflow=hidden;rotatable=0;points=[[0,0.5],[1,0.5]];portConstraint=eastwest;whiteSpace=wrap;html=1;" parent="x3BpiLL0yiVPKCxL9a65-11" vertex="1">
          <mxGeometry y="92" width="160" height="26" as="geometry" />
        </mxCell>
        <mxCell id="x3BpiLL0yiVPKCxL9a65-23" value="&lt;i style=&quot;text-wrap: nowrap;&quot;&gt;&amp;lt;&amp;lt;Enumeration&amp;gt;&amp;gt;&lt;/i&gt;&lt;br style=&quot;text-wrap: nowrap;&quot;&gt;&lt;span style=&quot;text-wrap: nowrap;&quot;&gt;&lt;b&gt;UserState&lt;/b&gt;&lt;/span&gt;&lt;b style=&quot;text-wrap: nowrap;&quot;&gt;Enum&lt;/b&gt;" style="swimlane;fontStyle=0;childLayout=stackLayout;horizontal=1;startSize=40;fillColor=#fff2cc;horizontalStack=0;resizeParent=1;resizeParentMax=0;resizeLast=0;collapsible=1;marginBottom=0;whiteSpace=wrap;html=1;strokeColor=#d6b656;" parent="1" vertex="1">
          <mxGeometry y="623" width="160" height="118" as="geometry">
            <mxRectangle x="190" y="50" width="140" height="40" as="alternateBounds" />
          </mxGeometry>
        </mxCell>
        <mxCell id="x3BpiLL0yiVPKCxL9a65-24" value="+ pendiente: string" style="text;strokeColor=none;fillColor=none;align=left;verticalAlign=top;spacingLeft=4;spacingRight=4;overflow=hidden;rotatable=0;points=[[0,0.5],[1,0.5]];portConstraint=eastwest;whiteSpace=wrap;html=1;" parent="x3BpiLL0yiVPKCxL9a65-23" vertex="1">
          <mxGeometry y="40" width="160" height="26" as="geometry" />
        </mxCell>
        <mxCell id="x3BpiLL0yiVPKCxL9a65-25" value="+ autorizado: string" style="text;strokeColor=none;fillColor=none;align=left;verticalAlign=top;spacingLeft=4;spacingRight=4;overflow=hidden;rotatable=0;points=[[0,0.5],[1,0.5]];portConstraint=eastwest;whiteSpace=wrap;html=1;" parent="x3BpiLL0yiVPKCxL9a65-23" vertex="1">
          <mxGeometry y="66" width="160" height="26" as="geometry" />
        </mxCell>
        <mxCell id="x3BpiLL0yiVPKCxL9a65-26" value="+ bloqueado: string" style="text;strokeColor=none;fillColor=none;align=left;verticalAlign=top;spacingLeft=4;spacingRight=4;overflow=hidden;rotatable=0;points=[[0,0.5],[1,0.5]];portConstraint=eastwest;whiteSpace=wrap;html=1;" parent="x3BpiLL0yiVPKCxL9a65-23" vertex="1">
          <mxGeometry y="92" width="160" height="26" as="geometry" />
        </mxCell>
        <mxCell id="x3BpiLL0yiVPKCxL9a65-27" value="Project" style="swimlane;fontStyle=0;childLayout=stackLayout;horizontal=1;startSize=26;fillColor=#d5e8d4;horizontalStack=0;resizeParent=1;resizeParentMax=0;resizeLast=0;collapsible=1;marginBottom=0;whiteSpace=wrap;html=1;strokeColor=#82b366;" parent="1" vertex="1">
          <mxGeometry x="280" y="182" width="200" height="300" as="geometry">
            <mxRectangle x="350" y="210" width="80" height="30" as="alternateBounds" />
          </mxGeometry>
        </mxCell>
        <mxCell id="x3BpiLL0yiVPKCxL9a65-28" value="+ _id: string" style="text;strokeColor=none;fillColor=none;align=left;verticalAlign=top;spacingLeft=4;spacingRight=4;overflow=hidden;rotatable=0;points=[[0,0.5],[1,0.5]];portConstraint=eastwest;whiteSpace=wrap;html=1;" parent="x3BpiLL0yiVPKCxL9a65-27" vertex="1">
          <mxGeometry y="26" width="200" height="26" as="geometry" />
        </mxCell>
        <mxCell id="x3BpiLL0yiVPKCxL9a65-31" value="+ name: string" style="text;strokeColor=none;fillColor=none;align=left;verticalAlign=top;spacingLeft=4;spacingRight=4;overflow=hidden;rotatable=0;points=[[0,0.5],[1,0.5]];portConstraint=eastwest;whiteSpace=wrap;html=1;" parent="x3BpiLL0yiVPKCxL9a65-27" vertex="1">
          <mxGeometry y="52" width="200" height="26" as="geometry" />
        </mxCell>
        <mxCell id="x3BpiLL0yiVPKCxL9a65-35" value="+ lider: Usuario" style="text;strokeColor=none;fillColor=none;align=left;verticalAlign=top;spacingLeft=4;spacingRight=4;overflow=hidden;rotatable=0;points=[[0,0.5],[1,0.5]];portConstraint=eastwest;whiteSpace=wrap;html=1;" parent="x3BpiLL0yiVPKCxL9a65-27" vertex="1">
          <mxGeometry y="78" width="200" height="24" as="geometry" />
        </mxCell>
        <mxCell id="x3BpiLL0yiVPKCxL9a65-34" value="+ budget: float" style="text;strokeColor=none;fillColor=none;align=left;verticalAlign=top;spacingLeft=4;spacingRight=4;overflow=hidden;rotatable=0;points=[[0,0.5],[1,0.5]];portConstraint=eastwest;whiteSpace=wrap;html=1;" parent="x3BpiLL0yiVPKCxL9a65-27" vertex="1">
          <mxGeometry y="102" width="200" height="24" as="geometry" />
        </mxCell>
        <mxCell id="x3BpiLL0yiVPKCxL9a65-30" value="+ startDate: Date" style="text;strokeColor=none;fillColor=none;align=left;verticalAlign=top;spacingLeft=4;spacingRight=4;overflow=hidden;rotatable=0;points=[[0,0.5],[1,0.5]];portConstraint=eastwest;whiteSpace=wrap;html=1;" parent="x3BpiLL0yiVPKCxL9a65-27" vertex="1">
          <mxGeometry y="126" width="200" height="26" as="geometry" />
        </mxCell>
        <mxCell id="x3BpiLL0yiVPKCxL9a65-29" value="+ endDate: Date" style="text;strokeColor=none;fillColor=none;align=left;verticalAlign=top;spacingLeft=4;spacingRight=4;overflow=hidden;rotatable=0;points=[[0,0.5],[1,0.5]];portConstraint=eastwest;whiteSpace=wrap;html=1;" parent="x3BpiLL0yiVPKCxL9a65-27" vertex="1">
          <mxGeometry y="152" width="200" height="26" as="geometry" />
        </mxCell>
        <mxCell id="KXXSFgCmxIffbm1IBeEC-15" style="edgeStyle=orthogonalEdgeStyle;rounded=0;orthogonalLoop=1;jettySize=auto;html=1;exitX=1;exitY=0.5;exitDx=0;exitDy=0;" parent="x3BpiLL0yiVPKCxL9a65-27" source="x3BpiLL0yiVPKCxL9a65-32" edge="1">
          <mxGeometry relative="1" as="geometry">
            <mxPoint x="200" y="191" as="targetPoint" />
          </mxGeometry>
        </mxCell>
        <mxCell id="x3BpiLL0yiVPKCxL9a65-32" value="+ objectives: Objective[]" style="text;strokeColor=none;fillColor=none;align=left;verticalAlign=top;spacingLeft=4;spacingRight=4;overflow=hidden;rotatable=0;points=[[0,0.5],[1,0.5]];portConstraint=eastwest;whiteSpace=wrap;html=1;" parent="x3BpiLL0yiVPKCxL9a65-27" vertex="1">
          <mxGeometry y="178" width="200" height="26" as="geometry" />
        </mxCell>
        <mxCell id="Urp_EZH4FQjt7h9jLKdx-29" value="+ state:&amp;nbsp;&lt;span style=&quot;text-align: center; text-wrap: nowrap;&quot;&gt;ProjectState&lt;/span&gt;&lt;span style=&quot;text-align: center; text-wrap: nowrap;&quot;&gt;Enum&lt;/span&gt;" style="text;strokeColor=none;fillColor=none;align=left;verticalAlign=top;spacingLeft=4;spacingRight=4;overflow=hidden;rotatable=0;points=[[0,0.5],[1,0.5]];portConstraint=eastwest;whiteSpace=wrap;html=1;" parent="x3BpiLL0yiVPKCxL9a65-27" vertex="1">
          <mxGeometry y="204" width="200" height="24" as="geometry" />
        </mxCell>
        <mxCell id="x3BpiLL0yiVPKCxL9a65-45" value="+ phase:&amp;nbsp;&lt;span style=&quot;text-align: center; text-wrap: nowrap;&quot;&gt;ProjectPhase&lt;/span&gt;&lt;span style=&quot;text-align: center; text-wrap: nowrap;&quot;&gt;Enum&lt;/span&gt;" style="text;strokeColor=none;fillColor=none;align=left;verticalAlign=top;spacingLeft=4;spacingRight=4;overflow=hidden;rotatable=0;points=[[0,0.5],[1,0.5]];portConstraint=eastwest;whiteSpace=wrap;html=1;" parent="x3BpiLL0yiVPKCxL9a65-27" vertex="1">
          <mxGeometry y="228" width="200" height="24" as="geometry" />
        </mxCell>
        <mxCell id="x3BpiLL0yiVPKCxL9a65-40" value="&lt;div style=&quot;text-align: center;&quot;&gt;&lt;span style=&quot;background-color: initial;&quot;&gt;+ advances: &lt;span style=&quot;text-wrap: nowrap;&quot;&gt;Advance[]&lt;/span&gt;&lt;/span&gt;&lt;/div&gt;" style="text;strokeColor=none;fillColor=none;align=left;verticalAlign=top;spacingLeft=4;spacingRight=4;overflow=hidden;rotatable=0;points=[[0,0.5],[1,0.5]];portConstraint=eastwest;whiteSpace=wrap;html=1;" parent="x3BpiLL0yiVPKCxL9a65-27" vertex="1">
          <mxGeometry y="252" width="200" height="24" as="geometry" />
        </mxCell>
        <mxCell id="KXXSFgCmxIffbm1IBeEC-41" value="&lt;div style=&quot;text-align: center;&quot;&gt;&lt;span style=&quot;background-color: initial;&quot;&gt;+ enrollments: &lt;span style=&quot;text-wrap: nowrap;&quot;&gt;Enrollment[]&lt;/span&gt;&lt;/span&gt;&lt;/div&gt;" style="text;strokeColor=none;fillColor=none;align=left;verticalAlign=top;spacingLeft=4;spacingRight=4;overflow=hidden;rotatable=0;points=[[0,0.5],[1,0.5]];portConstraint=eastwest;whiteSpace=wrap;html=1;" parent="x3BpiLL0yiVPKCxL9a65-27" vertex="1">
          <mxGeometry y="276" width="200" height="24" as="geometry" />
        </mxCell>
        <mxCell id="x3BpiLL0yiVPKCxL9a65-36" value="&lt;i style=&quot;text-wrap: nowrap;&quot;&gt;&amp;lt;&amp;lt;Enumeration&amp;gt;&amp;gt;&lt;/i&gt;&lt;br style=&quot;text-wrap: nowrap;&quot;&gt;&lt;span style=&quot;text-wrap: nowrap;&quot;&gt;&lt;b&gt;ProjectState&lt;/b&gt;&lt;/span&gt;&lt;b style=&quot;text-wrap: nowrap;&quot;&gt;Enum&lt;/b&gt;" style="swimlane;fontStyle=0;childLayout=stackLayout;horizontal=1;startSize=40;fillColor=#fff2cc;horizontalStack=0;resizeParent=1;resizeParentMax=0;resizeLast=0;collapsible=1;marginBottom=0;whiteSpace=wrap;html=1;strokeColor=#d6b656;" parent="1" vertex="1">
          <mxGeometry x="280" y="664" width="160" height="92" as="geometry">
            <mxRectangle x="190" y="50" width="140" height="40" as="alternateBounds" />
          </mxGeometry>
        </mxCell>
        <mxCell id="x3BpiLL0yiVPKCxL9a65-37" value="+ active: string" style="text;strokeColor=none;fillColor=none;align=left;verticalAlign=top;spacingLeft=4;spacingRight=4;overflow=hidden;rotatable=0;points=[[0,0.5],[1,0.5]];portConstraint=eastwest;whiteSpace=wrap;html=1;" parent="x3BpiLL0yiVPKCxL9a65-36" vertex="1">
          <mxGeometry y="40" width="160" height="26" as="geometry" />
        </mxCell>
        <mxCell id="x3BpiLL0yiVPKCxL9a65-38" value="+ inactive: string" style="text;strokeColor=none;fillColor=none;align=left;verticalAlign=top;spacingLeft=4;spacingRight=4;overflow=hidden;rotatable=0;points=[[0,0.5],[1,0.5]];portConstraint=eastwest;whiteSpace=wrap;html=1;" parent="x3BpiLL0yiVPKCxL9a65-36" vertex="1">
          <mxGeometry y="66" width="160" height="26" as="geometry" />
        </mxCell>
        <mxCell id="x3BpiLL0yiVPKCxL9a65-41" value="&lt;i style=&quot;text-wrap: nowrap;&quot;&gt;&amp;lt;&amp;lt;Enumeration&amp;gt;&amp;gt;&lt;/i&gt;&lt;br style=&quot;text-wrap: nowrap;&quot;&gt;&lt;span style=&quot;text-wrap: nowrap;&quot;&gt;&lt;b&gt;ProjectPhase&lt;/b&gt;&lt;/span&gt;&lt;b style=&quot;text-wrap: nowrap;&quot;&gt;Enum&lt;/b&gt;" style="swimlane;fontStyle=0;childLayout=stackLayout;horizontal=1;startSize=40;fillColor=#fff2cc;horizontalStack=0;resizeParent=1;resizeParentMax=0;resizeLast=0;collapsible=1;marginBottom=0;whiteSpace=wrap;html=1;strokeColor=#d6b656;" parent="1" vertex="1">
          <mxGeometry x="280" y="504" width="160" height="144" as="geometry">
            <mxRectangle x="190" y="50" width="140" height="40" as="alternateBounds" />
          </mxGeometry>
        </mxCell>
        <mxCell id="x3BpiLL0yiVPKCxL9a65-42" value="+ started: string" style="text;strokeColor=none;fillColor=none;align=left;verticalAlign=top;spacingLeft=4;spacingRight=4;overflow=hidden;rotatable=0;points=[[0,0.5],[1,0.5]];portConstraint=eastwest;whiteSpace=wrap;html=1;" parent="x3BpiLL0yiVPKCxL9a65-41" vertex="1">
          <mxGeometry y="40" width="160" height="26" as="geometry" />
        </mxCell>
        <mxCell id="x3BpiLL0yiVPKCxL9a65-43" value="+ development: string" style="text;strokeColor=none;fillColor=none;align=left;verticalAlign=top;spacingLeft=4;spacingRight=4;overflow=hidden;rotatable=0;points=[[0,0.5],[1,0.5]];portConstraint=eastwest;whiteSpace=wrap;html=1;" parent="x3BpiLL0yiVPKCxL9a65-41" vertex="1">
          <mxGeometry y="66" width="160" height="26" as="geometry" />
        </mxCell>
        <mxCell id="x3BpiLL0yiVPKCxL9a65-44" value="+ finished: string" style="text;strokeColor=none;fillColor=none;align=left;verticalAlign=top;spacingLeft=4;spacingRight=4;overflow=hidden;rotatable=0;points=[[0,0.5],[1,0.5]];portConstraint=eastwest;whiteSpace=wrap;html=1;" parent="x3BpiLL0yiVPKCxL9a65-41" vertex="1">
          <mxGeometry y="92" width="160" height="26" as="geometry" />
        </mxCell>
        <mxCell id="x3BpiLL0yiVPKCxL9a65-46" value="+ empty: string" style="text;strokeColor=none;fillColor=none;align=left;verticalAlign=top;spacingLeft=4;spacingRight=4;overflow=hidden;rotatable=0;points=[[0,0.5],[1,0.5]];portConstraint=eastwest;whiteSpace=wrap;html=1;" parent="x3BpiLL0yiVPKCxL9a65-41" vertex="1">
          <mxGeometry y="118" width="160" height="26" as="geometry" />
        </mxCell>
        <mxCell id="Urp_EZH4FQjt7h9jLKdx-14" style="edgeStyle=orthogonalEdgeStyle;rounded=0;orthogonalLoop=1;jettySize=auto;html=1;entryX=1.007;entryY=0.769;entryDx=0;entryDy=0;entryPerimeter=0;" parent="1" source="x3BpiLL0yiVPKCxL9a65-35" target="x3BpiLL0yiVPKCxL9a65-3" edge="1">
          <mxGeometry relative="1" as="geometry">
            <Array as="points">
              <mxPoint x="254" y="276" />
              <mxPoint x="254" y="276" />
            </Array>
          </mxGeometry>
        </mxCell>
        <mxCell id="Urp_EZH4FQjt7h9jLKdx-15" value="N" style="edgeLabel;html=1;align=center;verticalAlign=middle;resizable=0;points=[];" parent="Urp_EZH4FQjt7h9jLKdx-14" vertex="1" connectable="0">
          <mxGeometry x="-0.7123" relative="1" as="geometry">
            <mxPoint y="-8" as="offset" />
          </mxGeometry>
        </mxCell>
        <mxCell id="Urp_EZH4FQjt7h9jLKdx-16" value="1" style="edgeLabel;html=1;align=center;verticalAlign=middle;resizable=0;points=[];" parent="Urp_EZH4FQjt7h9jLKdx-14" vertex="1" connectable="0">
          <mxGeometry x="0.6401" relative="1" as="geometry">
            <mxPoint y="-8" as="offset" />
          </mxGeometry>
        </mxCell>
        <mxCell id="Urp_EZH4FQjt7h9jLKdx-17" value="Leader" style="edgeLabel;html=1;align=center;verticalAlign=middle;resizable=0;points=[];" parent="Urp_EZH4FQjt7h9jLKdx-14" vertex="1" connectable="0">
          <mxGeometry x="0.0358" y="-1" relative="1" as="geometry">
            <mxPoint y="-7" as="offset" />
          </mxGeometry>
        </mxCell>
        <mxCell id="Urp_EZH4FQjt7h9jLKdx-19" value="" style="endArrow=block;startArrow=block;endFill=1;startFill=1;html=1;rounded=0;exitX=0.979;exitY=0.808;exitDx=0;exitDy=0;exitPerimeter=0;entryX=0.01;entryY=0.808;entryDx=0;entryDy=0;entryPerimeter=0;" parent="1" source="x3BpiLL0yiVPKCxL9a65-5" target="x3BpiLL0yiVPKCxL9a65-30" edge="1">
          <mxGeometry width="160" relative="1" as="geometry">
            <mxPoint x="149" y="330.5" as="sourcePoint" />
            <mxPoint x="279" y="330.5" as="targetPoint" />
          </mxGeometry>
        </mxCell>
        <mxCell id="Urp_EZH4FQjt7h9jLKdx-20" value="1" style="edgeLabel;html=1;align=center;verticalAlign=middle;resizable=0;points=[];" parent="Urp_EZH4FQjt7h9jLKdx-19" vertex="1" connectable="0">
          <mxGeometry x="-0.6835" y="-1" relative="1" as="geometry">
            <mxPoint y="-38" as="offset" />
          </mxGeometry>
        </mxCell>
        <mxCell id="Urp_EZH4FQjt7h9jLKdx-21" value="Leader" style="edgeLabel;html=1;align=center;verticalAlign=middle;resizable=0;points=[];" parent="Urp_EZH4FQjt7h9jLKdx-19" vertex="1" connectable="0">
          <mxGeometry x="-0.0108" relative="1" as="geometry">
            <mxPoint y="-38" as="offset" />
          </mxGeometry>
        </mxCell>
        <mxCell id="Urp_EZH4FQjt7h9jLKdx-22" value="N" style="edgeLabel;html=1;align=center;verticalAlign=middle;resizable=0;points=[];" parent="Urp_EZH4FQjt7h9jLKdx-19" vertex="1" connectable="0">
          <mxGeometry x="0.5929" y="-1" relative="1" as="geometry">
            <mxPoint y="-38" as="offset" />
          </mxGeometry>
        </mxCell>
        <mxCell id="Urp_EZH4FQjt7h9jLKdx-23" value="N" style="edgeLabel;html=1;align=center;verticalAlign=middle;resizable=0;points=[];" parent="Urp_EZH4FQjt7h9jLKdx-19" vertex="1" connectable="0">
          <mxGeometry x="-0.649" y="-1" relative="1" as="geometry">
            <mxPoint y="-23" as="offset" />
          </mxGeometry>
        </mxCell>
        <mxCell id="Urp_EZH4FQjt7h9jLKdx-24" value="N" style="edgeLabel;html=1;align=center;verticalAlign=middle;resizable=0;points=[];" parent="Urp_EZH4FQjt7h9jLKdx-19" vertex="1" connectable="0">
          <mxGeometry x="0.6274" relative="1" as="geometry">
            <mxPoint y="-23" as="offset" />
          </mxGeometry>
        </mxCell>
        <mxCell id="Urp_EZH4FQjt7h9jLKdx-25" value="Student" style="edgeLabel;html=1;align=center;verticalAlign=middle;resizable=0;points=[];" parent="Urp_EZH4FQjt7h9jLKdx-19" vertex="1" connectable="0">
          <mxGeometry x="-0.0453" relative="1" as="geometry">
            <mxPoint y="-23" as="offset" />
          </mxGeometry>
        </mxCell>
        <mxCell id="Urp_EZH4FQjt7h9jLKdx-26" value="1" style="edgeLabel;html=1;align=center;verticalAlign=middle;resizable=0;points=[];" parent="Urp_EZH4FQjt7h9jLKdx-19" vertex="1" connectable="0">
          <mxGeometry x="-0.6145" y="-1" relative="1" as="geometry">
            <mxPoint y="-9" as="offset" />
          </mxGeometry>
        </mxCell>
        <mxCell id="Urp_EZH4FQjt7h9jLKdx-27" value="N" style="edgeLabel;html=1;align=center;verticalAlign=middle;resizable=0;points=[];" parent="Urp_EZH4FQjt7h9jLKdx-19" vertex="1" connectable="0">
          <mxGeometry x="0.6447" relative="1" as="geometry">
            <mxPoint y="-9" as="offset" />
          </mxGeometry>
        </mxCell>
        <mxCell id="Urp_EZH4FQjt7h9jLKdx-28" value="Manager" style="edgeLabel;html=1;align=center;verticalAlign=middle;resizable=0;points=[];" parent="Urp_EZH4FQjt7h9jLKdx-19" vertex="1" connectable="0">
          <mxGeometry x="-0.028" y="-1" relative="1" as="geometry">
            <mxPoint y="-9" as="offset" />
          </mxGeometry>
        </mxCell>
        <mxCell id="Urp_EZH4FQjt7h9jLKdx-30" value="Objective" style="swimlane;fontStyle=0;childLayout=stackLayout;horizontal=1;startSize=26;fillColor=#d5e8d4;horizontalStack=0;resizeParent=1;resizeParentMax=0;resizeLast=0;collapsible=1;marginBottom=0;whiteSpace=wrap;html=1;strokeColor=#82b366;" parent="1" vertex="1">
          <mxGeometry x="540" y="198" width="180" height="104" as="geometry">
            <mxRectangle x="350" y="210" width="80" height="30" as="alternateBounds" />
          </mxGeometry>
        </mxCell>
        <mxCell id="Urp_EZH4FQjt7h9jLKdx-31" value="+ _id: string" style="text;strokeColor=none;fillColor=none;align=left;verticalAlign=top;spacingLeft=4;spacingRight=4;overflow=hidden;rotatable=0;points=[[0,0.5],[1,0.5]];portConstraint=eastwest;whiteSpace=wrap;html=1;" parent="Urp_EZH4FQjt7h9jLKdx-30" vertex="1">
          <mxGeometry y="26" width="180" height="26" as="geometry" />
        </mxCell>
        <mxCell id="Urp_EZH4FQjt7h9jLKdx-32" value="+ description: string" style="text;strokeColor=none;fillColor=none;align=left;verticalAlign=top;spacingLeft=4;spacingRight=4;overflow=hidden;rotatable=0;points=[[0,0.5],[1,0.5]];portConstraint=eastwest;whiteSpace=wrap;html=1;" parent="Urp_EZH4FQjt7h9jLKdx-30" vertex="1">
          <mxGeometry y="52" width="180" height="26" as="geometry" />
        </mxCell>
        <mxCell id="Urp_EZH4FQjt7h9jLKdx-33" value="+ type:&amp;nbsp;&lt;span style=&quot;text-align: center; text-wrap: nowrap;&quot;&gt;ObjectiveType&lt;/span&gt;&lt;span style=&quot;text-align: center; text-wrap: nowrap;&quot;&gt;Enum&lt;/span&gt;" style="text;strokeColor=none;fillColor=none;align=left;verticalAlign=top;spacingLeft=4;spacingRight=4;overflow=hidden;rotatable=0;points=[[0,0.5],[1,0.5]];portConstraint=eastwest;whiteSpace=wrap;html=1;" parent="Urp_EZH4FQjt7h9jLKdx-30" vertex="1">
          <mxGeometry y="78" width="180" height="26" as="geometry" />
        </mxCell>
        <mxCell id="KXXSFgCmxIffbm1IBeEC-1" value="&lt;i style=&quot;text-wrap: nowrap;&quot;&gt;&amp;lt;&amp;lt;Enumeration&amp;gt;&amp;gt;&lt;/i&gt;&lt;br style=&quot;text-wrap: nowrap;&quot;&gt;&lt;span style=&quot;text-wrap: nowrap;&quot;&gt;&lt;b&gt;ObjectiveType&lt;/b&gt;&lt;/span&gt;&lt;b style=&quot;text-wrap: nowrap;&quot;&gt;Enum&lt;/b&gt;" style="swimlane;fontStyle=0;childLayout=stackLayout;horizontal=1;startSize=40;fillColor=#fff2cc;horizontalStack=0;resizeParent=1;resizeParentMax=0;resizeLast=0;collapsible=1;marginBottom=0;whiteSpace=wrap;html=1;strokeColor=#d6b656;" parent="1" vertex="1">
          <mxGeometry x="550" y="320" width="160" height="92" as="geometry">
            <mxRectangle x="190" y="50" width="140" height="40" as="alternateBounds" />
          </mxGeometry>
        </mxCell>
        <mxCell id="KXXSFgCmxIffbm1IBeEC-2" value="+ general: string" style="text;strokeColor=none;fillColor=none;align=left;verticalAlign=top;spacingLeft=4;spacingRight=4;overflow=hidden;rotatable=0;points=[[0,0.5],[1,0.5]];portConstraint=eastwest;whiteSpace=wrap;html=1;" parent="KXXSFgCmxIffbm1IBeEC-1" vertex="1">
          <mxGeometry y="40" width="160" height="26" as="geometry" />
        </mxCell>
        <mxCell id="KXXSFgCmxIffbm1IBeEC-3" value="+ specific: string" style="text;strokeColor=none;fillColor=none;align=left;verticalAlign=top;spacingLeft=4;spacingRight=4;overflow=hidden;rotatable=0;points=[[0,0.5],[1,0.5]];portConstraint=eastwest;whiteSpace=wrap;html=1;" parent="KXXSFgCmxIffbm1IBeEC-1" vertex="1">
          <mxGeometry y="66" width="160" height="26" as="geometry" />
        </mxCell>
        <mxCell id="KXXSFgCmxIffbm1IBeEC-9" style="edgeStyle=orthogonalEdgeStyle;rounded=0;orthogonalLoop=1;jettySize=auto;html=1;entryX=0;entryY=0.25;entryDx=0;entryDy=0;" parent="1" source="Urp_EZH4FQjt7h9jLKdx-33" target="KXXSFgCmxIffbm1IBeEC-1" edge="1">
          <mxGeometry relative="1" as="geometry" />
        </mxCell>
        <mxCell id="KXXSFgCmxIffbm1IBeEC-10" value="1" style="edgeLabel;html=1;align=center;verticalAlign=middle;resizable=0;points=[];" parent="KXXSFgCmxIffbm1IBeEC-9" vertex="1" connectable="0">
          <mxGeometry x="-0.8077" relative="1" as="geometry">
            <mxPoint as="offset" />
          </mxGeometry>
        </mxCell>
        <mxCell id="KXXSFgCmxIffbm1IBeEC-11" value="1" style="edgeLabel;html=1;align=center;verticalAlign=middle;resizable=0;points=[];" parent="KXXSFgCmxIffbm1IBeEC-9" vertex="1" connectable="0">
          <mxGeometry x="0.6538" relative="1" as="geometry">
            <mxPoint as="offset" />
          </mxGeometry>
        </mxCell>
        <mxCell id="KXXSFgCmxIffbm1IBeEC-12" style="edgeStyle=orthogonalEdgeStyle;rounded=0;orthogonalLoop=1;jettySize=auto;html=1;exitX=1;exitY=0.5;exitDx=0;exitDy=0;entryX=-0.011;entryY=0.087;entryDx=0;entryDy=0;entryPerimeter=0;" parent="1" source="x3BpiLL0yiVPKCxL9a65-32" target="Urp_EZH4FQjt7h9jLKdx-30" edge="1">
          <mxGeometry relative="1" as="geometry">
            <mxPoint x="481" y="373" as="sourcePoint" />
            <mxPoint x="533.94" y="207.048" as="targetPoint" />
            <Array as="points">
              <mxPoint x="507" y="373" />
              <mxPoint x="507" y="207" />
            </Array>
          </mxGeometry>
        </mxCell>
        <mxCell id="KXXSFgCmxIffbm1IBeEC-13" value="1" style="edgeLabel;html=1;align=center;verticalAlign=middle;resizable=0;points=[];" parent="KXXSFgCmxIffbm1IBeEC-12" vertex="1" connectable="0">
          <mxGeometry x="-0.9361" y="1" relative="1" as="geometry">
            <mxPoint y="-7" as="offset" />
          </mxGeometry>
        </mxCell>
        <mxCell id="KXXSFgCmxIffbm1IBeEC-14" value="N" style="edgeLabel;html=1;align=center;verticalAlign=middle;resizable=0;points=[];" parent="KXXSFgCmxIffbm1IBeEC-12" vertex="1" connectable="0">
          <mxGeometry x="0.8544" relative="1" as="geometry">
            <mxPoint y="-9" as="offset" />
          </mxGeometry>
        </mxCell>
        <mxCell id="KXXSFgCmxIffbm1IBeEC-19" style="edgeStyle=orthogonalEdgeStyle;rounded=0;orthogonalLoop=1;jettySize=auto;html=1;entryX=0;entryY=0.25;entryDx=0;entryDy=0;" parent="1" source="x3BpiLL0yiVPKCxL9a65-45" target="x3BpiLL0yiVPKCxL9a65-41" edge="1">
          <mxGeometry relative="1" as="geometry" />
        </mxCell>
        <mxCell id="KXXSFgCmxIffbm1IBeEC-21" value="Enrollment" style="swimlane;fontStyle=0;childLayout=stackLayout;horizontal=1;startSize=26;fillColor=#d5e8d4;horizontalStack=0;resizeParent=1;resizeParentMax=0;resizeLast=0;collapsible=1;marginBottom=0;whiteSpace=wrap;html=1;strokeColor=#82b366;" parent="1" vertex="1">
          <mxGeometry x="470" y="504" width="170" height="176" as="geometry">
            <mxRectangle x="350" y="210" width="80" height="30" as="alternateBounds" />
          </mxGeometry>
        </mxCell>
        <mxCell id="KXXSFgCmxIffbm1IBeEC-22" value="+ _id: string" style="text;strokeColor=none;fillColor=none;align=left;verticalAlign=top;spacingLeft=4;spacingRight=4;overflow=hidden;rotatable=0;points=[[0,0.5],[1,0.5]];portConstraint=eastwest;whiteSpace=wrap;html=1;" parent="KXXSFgCmxIffbm1IBeEC-21" vertex="1">
          <mxGeometry y="26" width="170" height="26" as="geometry" />
        </mxCell>
        <mxCell id="KXXSFgCmxIffbm1IBeEC-23" value="+ projectId: string" style="text;strokeColor=none;fillColor=none;align=left;verticalAlign=top;spacingLeft=4;spacingRight=4;overflow=hidden;rotatable=0;points=[[0,0.5],[1,0.5]];portConstraint=eastwest;whiteSpace=wrap;html=1;" parent="KXXSFgCmxIffbm1IBeEC-21" vertex="1">
          <mxGeometry y="52" width="170" height="26" as="geometry" />
        </mxCell>
        <mxCell id="KXXSFgCmxIffbm1IBeEC-24" value="+ studentId: String" style="text;strokeColor=none;fillColor=none;align=left;verticalAlign=top;spacingLeft=4;spacingRight=4;overflow=hidden;rotatable=0;points=[[0,0.5],[1,0.5]];portConstraint=eastwest;whiteSpace=wrap;html=1;" parent="KXXSFgCmxIffbm1IBeEC-21" vertex="1">
          <mxGeometry y="78" width="170" height="26" as="geometry" />
        </mxCell>
        <mxCell id="KXXSFgCmxIffbm1IBeEC-29" value="+ state: EnrollmentStateEnum" style="text;strokeColor=none;fillColor=none;align=left;verticalAlign=top;spacingLeft=4;spacingRight=4;overflow=hidden;rotatable=0;points=[[0,0.5],[1,0.5]];portConstraint=eastwest;whiteSpace=wrap;html=1;" parent="KXXSFgCmxIffbm1IBeEC-21" vertex="1">
          <mxGeometry y="104" width="170" height="24" as="geometry" />
        </mxCell>
        <mxCell id="KXXSFgCmxIffbm1IBeEC-30" value="+ entryDate: Date" style="text;strokeColor=none;fillColor=none;align=left;verticalAlign=top;spacingLeft=4;spacingRight=4;overflow=hidden;rotatable=0;points=[[0,0.5],[1,0.5]];portConstraint=eastwest;whiteSpace=wrap;html=1;" parent="KXXSFgCmxIffbm1IBeEC-21" vertex="1">
          <mxGeometry y="128" width="170" height="24" as="geometry" />
        </mxCell>
        <mxCell id="KXXSFgCmxIffbm1IBeEC-31" value="+ exitDate: Date" style="text;strokeColor=none;fillColor=none;align=left;verticalAlign=top;spacingLeft=4;spacingRight=4;overflow=hidden;rotatable=0;points=[[0,0.5],[1,0.5]];portConstraint=eastwest;whiteSpace=wrap;html=1;" parent="KXXSFgCmxIffbm1IBeEC-21" vertex="1">
          <mxGeometry y="152" width="170" height="24" as="geometry" />
        </mxCell>
        <mxCell id="KXXSFgCmxIffbm1IBeEC-48" style="edgeStyle=orthogonalEdgeStyle;rounded=0;orthogonalLoop=1;jettySize=auto;html=1;entryX=0;entryY=0.25;entryDx=0;entryDy=0;" parent="1" source="x3BpiLL0yiVPKCxL9a65-7" target="x3BpiLL0yiVPKCxL9a65-11" edge="1">
          <mxGeometry relative="1" as="geometry" />
        </mxCell>
        <mxCell id="KXXSFgCmxIffbm1IBeEC-50" value="&lt;i style=&quot;text-wrap: nowrap;&quot;&gt;&amp;lt;&amp;lt;Enumeration&amp;gt;&amp;gt;&lt;/i&gt;&lt;br style=&quot;text-wrap: nowrap;&quot;&gt;&lt;b style=&quot;text-wrap: nowrap;&quot;&gt;EnrollmentStateEnum&lt;/b&gt;" style="swimlane;fontStyle=0;childLayout=stackLayout;horizontal=1;startSize=40;fillColor=#fff2cc;horizontalStack=0;resizeParent=1;resizeParentMax=0;resizeLast=0;collapsible=1;marginBottom=0;whiteSpace=wrap;html=1;strokeColor=#d6b656;" parent="1" vertex="1">
          <mxGeometry x="470" y="688" width="160" height="92" as="geometry">
            <mxRectangle x="190" y="50" width="140" height="40" as="alternateBounds" />
          </mxGeometry>
        </mxCell>
        <mxCell id="KXXSFgCmxIffbm1IBeEC-51" value="+ accepted: string" style="text;strokeColor=none;fillColor=none;align=left;verticalAlign=top;spacingLeft=4;spacingRight=4;overflow=hidden;rotatable=0;points=[[0,0.5],[1,0.5]];portConstraint=eastwest;whiteSpace=wrap;html=1;" parent="KXXSFgCmxIffbm1IBeEC-50" vertex="1">
          <mxGeometry y="40" width="160" height="26" as="geometry" />
        </mxCell>
        <mxCell id="KXXSFgCmxIffbm1IBeEC-52" value="+ rejected: string" style="text;strokeColor=none;fillColor=none;align=left;verticalAlign=top;spacingLeft=4;spacingRight=4;overflow=hidden;rotatable=0;points=[[0,0.5],[1,0.5]];portConstraint=eastwest;whiteSpace=wrap;html=1;" parent="KXXSFgCmxIffbm1IBeEC-50" vertex="1">
          <mxGeometry y="66" width="160" height="26" as="geometry" />
        </mxCell>
        <mxCell id="KXXSFgCmxIffbm1IBeEC-53" style="edgeStyle=orthogonalEdgeStyle;rounded=0;orthogonalLoop=1;jettySize=auto;html=1;entryX=0;entryY=0.25;entryDx=0;entryDy=0;" parent="1" source="KXXSFgCmxIffbm1IBeEC-29" target="KXXSFgCmxIffbm1IBeEC-50" edge="1">
          <mxGeometry relative="1" as="geometry" />
        </mxCell>
        <mxCell id="KXXSFgCmxIffbm1IBeEC-54" style="edgeStyle=orthogonalEdgeStyle;rounded=0;orthogonalLoop=1;jettySize=auto;html=1;entryX=0.419;entryY=0.001;entryDx=0;entryDy=0;entryPerimeter=0;" parent="1" source="KXXSFgCmxIffbm1IBeEC-41" target="KXXSFgCmxIffbm1IBeEC-21" edge="1">
          <mxGeometry relative="1" as="geometry" />
        </mxCell>
        <mxCell id="KXXSFgCmxIffbm1IBeEC-55" value="1" style="edgeLabel;html=1;align=center;verticalAlign=middle;resizable=0;points=[];" parent="KXXSFgCmxIffbm1IBeEC-54" vertex="1" connectable="0">
          <mxGeometry x="-0.5711" relative="1" as="geometry">
            <mxPoint x="-5" y="9" as="offset" />
          </mxGeometry>
        </mxCell>
        <mxCell id="KXXSFgCmxIffbm1IBeEC-56" value="N" style="edgeLabel;html=1;align=center;verticalAlign=middle;resizable=0;points=[];" parent="KXXSFgCmxIffbm1IBeEC-54" vertex="1" connectable="0">
          <mxGeometry x="0.6585" y="1" relative="1" as="geometry">
            <mxPoint x="-10" y="-2" as="offset" />
          </mxGeometry>
        </mxCell>
        <mxCell id="KXXSFgCmxIffbm1IBeEC-57" style="edgeStyle=orthogonalEdgeStyle;rounded=0;orthogonalLoop=1;jettySize=auto;html=1;entryX=1;entryY=0.094;entryDx=0;entryDy=0;entryPerimeter=0;" parent="1" source="KXXSFgCmxIffbm1IBeEC-42" target="KXXSFgCmxIffbm1IBeEC-21" edge="1">
          <mxGeometry relative="1" as="geometry">
            <Array as="points">
              <mxPoint x="220" y="444" />
              <mxPoint x="220" y="800" />
              <mxPoint x="660" y="800" />
              <mxPoint x="660" y="521" />
            </Array>
          </mxGeometry>
        </mxCell>
        <mxCell id="YuhXvfVWgwxLyWSZHbTO-5" value="1" style="edgeLabel;html=1;align=center;verticalAlign=middle;resizable=0;points=[];" parent="KXXSFgCmxIffbm1IBeEC-57" vertex="1" connectable="0">
          <mxGeometry x="-0.9654" y="-1" relative="1" as="geometry">
            <mxPoint x="-6" y="-11" as="offset" />
          </mxGeometry>
        </mxCell>
        <mxCell id="YuhXvfVWgwxLyWSZHbTO-6" value="N" style="edgeLabel;html=1;align=center;verticalAlign=middle;resizable=0;points=[];" parent="KXXSFgCmxIffbm1IBeEC-57" vertex="1" connectable="0">
          <mxGeometry x="0.9723" y="-1" relative="1" as="geometry">
            <mxPoint y="-10" as="offset" />
          </mxGeometry>
        </mxCell>
        <mxCell id="KXXSFgCmxIffbm1IBeEC-58" style="edgeStyle=orthogonalEdgeStyle;rounded=0;orthogonalLoop=1;jettySize=auto;html=1;entryX=0;entryY=0.25;entryDx=0;entryDy=0;" parent="1" source="x3BpiLL0yiVPKCxL9a65-8" target="x3BpiLL0yiVPKCxL9a65-23" edge="1">
          <mxGeometry relative="1" as="geometry">
            <Array as="points">
              <mxPoint x="-40" y="372" />
              <mxPoint x="-40" y="653" />
            </Array>
          </mxGeometry>
        </mxCell>
        <mxCell id="KXXSFgCmxIffbm1IBeEC-63" value="Advance" style="swimlane;fontStyle=0;childLayout=stackLayout;horizontal=1;startSize=26;fillColor=#d5e8d4;horizontalStack=0;resizeParent=1;resizeParentMax=0;resizeLast=0;collapsible=1;marginBottom=0;whiteSpace=wrap;html=1;strokeColor=#82b366;" parent="1" vertex="1">
          <mxGeometry x="700" y="466" width="200" height="182" as="geometry">
            <mxRectangle x="350" y="210" width="80" height="30" as="alternateBounds" />
          </mxGeometry>
        </mxCell>
        <mxCell id="KXXSFgCmxIffbm1IBeEC-64" value="+ _id: string" style="text;strokeColor=none;fillColor=none;align=left;verticalAlign=top;spacingLeft=4;spacingRight=4;overflow=hidden;rotatable=0;points=[[0,0.5],[1,0.5]];portConstraint=eastwest;whiteSpace=wrap;html=1;" parent="KXXSFgCmxIffbm1IBeEC-63" vertex="1">
          <mxGeometry y="26" width="200" height="26" as="geometry" />
        </mxCell>
        <mxCell id="KXXSFgCmxIffbm1IBeEC-65" value="+ projectId: string" style="text;strokeColor=none;fillColor=none;align=left;verticalAlign=top;spacingLeft=4;spacingRight=4;overflow=hidden;rotatable=0;points=[[0,0.5],[1,0.5]];portConstraint=eastwest;whiteSpace=wrap;html=1;" parent="KXXSFgCmxIffbm1IBeEC-63" vertex="1">
          <mxGeometry y="52" width="200" height="26" as="geometry" />
        </mxCell>
        <mxCell id="KXXSFgCmxIffbm1IBeEC-66" value="+ date: Date" style="text;strokeColor=none;fillColor=none;align=left;verticalAlign=top;spacingLeft=4;spacingRight=4;overflow=hidden;rotatable=0;points=[[0,0.5],[1,0.5]];portConstraint=eastwest;whiteSpace=wrap;html=1;" parent="KXXSFgCmxIffbm1IBeEC-63" vertex="1">
          <mxGeometry y="78" width="200" height="24" as="geometry" />
        </mxCell>
        <mxCell id="KXXSFgCmxIffbm1IBeEC-67" value="+ description: string" style="text;strokeColor=none;fillColor=none;align=left;verticalAlign=top;spacingLeft=4;spacingRight=4;overflow=hidden;rotatable=0;points=[[0,0.5],[1,0.5]];portConstraint=eastwest;whiteSpace=wrap;html=1;" parent="KXXSFgCmxIffbm1IBeEC-63" vertex="1">
          <mxGeometry y="102" width="200" height="24" as="geometry" />
        </mxCell>
        <mxCell id="KXXSFgCmxIffbm1IBeEC-68" value="+ leaderRemarks: string" style="text;strokeColor=none;fillColor=none;align=left;verticalAlign=top;spacingLeft=4;spacingRight=4;overflow=hidden;rotatable=0;points=[[0,0.5],[1,0.5]];portConstraint=eastwest;whiteSpace=wrap;html=1;" parent="KXXSFgCmxIffbm1IBeEC-63" vertex="1">
          <mxGeometry y="126" width="200" height="24" as="geometry" />
        </mxCell>
        <mxCell id="KXXSFgCmxIffbm1IBeEC-93" value="+ studentId: String" style="text;strokeColor=none;fillColor=none;align=left;verticalAlign=top;spacingLeft=4;spacingRight=4;overflow=hidden;rotatable=0;points=[[0,0.5],[1,0.5]];portConstraint=eastwest;whiteSpace=wrap;html=1;" parent="KXXSFgCmxIffbm1IBeEC-63" vertex="1">
          <mxGeometry y="150" width="200" height="32" as="geometry" />
        </mxCell>
        <mxCell id="KXXSFgCmxIffbm1IBeEC-89" style="edgeStyle=orthogonalEdgeStyle;rounded=0;orthogonalLoop=1;jettySize=auto;html=1;entryX=0;entryY=0.25;entryDx=0;entryDy=0;" parent="1" source="Urp_EZH4FQjt7h9jLKdx-29" target="x3BpiLL0yiVPKCxL9a65-36" edge="1">
          <mxGeometry relative="1" as="geometry">
            <Array as="points">
              <mxPoint x="240" y="398" />
              <mxPoint x="240" y="687" />
            </Array>
          </mxGeometry>
        </mxCell>
        <mxCell id="KXXSFgCmxIffbm1IBeEC-90" style="edgeStyle=orthogonalEdgeStyle;rounded=0;orthogonalLoop=1;jettySize=auto;html=1;entryX=0.5;entryY=0;entryDx=0;entryDy=0;" parent="1" source="x3BpiLL0yiVPKCxL9a65-40" target="KXXSFgCmxIffbm1IBeEC-63" edge="1">
          <mxGeometry relative="1" as="geometry">
            <Array as="points">
              <mxPoint x="585" y="446" />
              <mxPoint x="800" y="445" />
            </Array>
          </mxGeometry>
        </mxCell>
        <mxCell id="KXXSFgCmxIffbm1IBeEC-91" value="1" style="edgeLabel;html=1;align=center;verticalAlign=middle;resizable=0;points=[];" parent="KXXSFgCmxIffbm1IBeEC-90" vertex="1" connectable="0">
          <mxGeometry x="-0.8938" y="-1" relative="1" as="geometry">
            <mxPoint y="8" as="offset" />
          </mxGeometry>
        </mxCell>
        <mxCell id="KXXSFgCmxIffbm1IBeEC-92" value="N" style="edgeLabel;html=1;align=center;verticalAlign=middle;resizable=0;points=[];" parent="KXXSFgCmxIffbm1IBeEC-90" vertex="1" connectable="0">
          <mxGeometry x="0.8442" y="1" relative="1" as="geometry">
            <mxPoint x="-12" y="8" as="offset" />
          </mxGeometry>
        </mxCell>
        <mxCell id="YuhXvfVWgwxLyWSZHbTO-2" style="edgeStyle=orthogonalEdgeStyle;rounded=0;orthogonalLoop=1;jettySize=auto;html=1;entryX=-0.01;entryY=0.044;entryDx=0;entryDy=0;entryPerimeter=0;" parent="1" target="KXXSFgCmxIffbm1IBeEC-63" edge="1">
          <mxGeometry relative="1" as="geometry">
            <mxPoint x="683" y="473.918" as="targetPoint" />
            <mxPoint x="160" y="468" as="sourcePoint" />
            <Array as="points">
              <mxPoint x="194" y="468" />
              <mxPoint x="194" y="820" />
              <mxPoint x="680" y="820" />
              <mxPoint x="680" y="474" />
            </Array>
          </mxGeometry>
        </mxCell>
        <mxCell id="YuhXvfVWgwxLyWSZHbTO-3" value="1" style="edgeLabel;html=1;align=center;verticalAlign=middle;resizable=0;points=[];" parent="YuhXvfVWgwxLyWSZHbTO-2" vertex="1" connectable="0">
          <mxGeometry x="-0.9772" y="1" relative="1" as="geometry">
            <mxPoint y="9" as="offset" />
          </mxGeometry>
        </mxCell>
        <mxCell id="YuhXvfVWgwxLyWSZHbTO-4" value="N" style="edgeLabel;html=1;align=center;verticalAlign=middle;resizable=0;points=[];" parent="YuhXvfVWgwxLyWSZHbTO-2" vertex="1" connectable="0">
          <mxGeometry x="0.964" y="1" relative="1" as="geometry">
            <mxPoint x="-12" as="offset" />
          </mxGeometry>
        </mxCell>
        <mxCell id="YuhXvfVWgwxLyWSZHbTO-8" value="Relación many to&lt;div&gt;many&amp;nbsp;&lt;span style=&quot;background-color: initial;&quot;&gt;usando&lt;/span&gt;&lt;/div&gt;&lt;div&gt;&lt;span style=&quot;background-color: initial;&quot;&gt;Enrollment&lt;/span&gt;&lt;/div&gt;" style="text;html=1;align=center;verticalAlign=middle;resizable=0;points=[];autosize=1;strokeColor=none;fillColor=none;" parent="1" vertex="1">
          <mxGeometry x="540" y="450" width="120" height="60" as="geometry" />
        </mxCell>
        <mxCell id="YuhXvfVWgwxLyWSZHbTO-9" value="Relación many to&lt;div&gt;many&amp;nbsp;&lt;span style=&quot;background-color: initial;&quot;&gt;usando&lt;/span&gt;&lt;/div&gt;&lt;div&gt;&lt;span style=&quot;background-color: initial;&quot;&gt;Advance&lt;/span&gt;&lt;/div&gt;" style="text;html=1;align=center;verticalAlign=middle;resizable=0;points=[];autosize=1;strokeColor=none;fillColor=none;" parent="1" vertex="1">
          <mxGeometry x="780" y="412" width="120" height="60" as="geometry" />
        </mxCell>
      </root>
    </mxGraphModel>
  </diagram>
</mxfile>
